REM DIRINDEX 1\2,1\3,1\4,1\5
REM DIRNAME folder01,folder02,folder03,folder04,folder05
TITLE ""
FILE "1Q_t_0313-0322.mp3" MP3
  TRACK 01 AUDIO
    TITLE "3:cjc004_1840"
    INDEX 01 00:00:00
  TRACK 02 AUDIO
    TITLE "0:"
    INDEX 01 00:01:09
  TRACK 03 AUDIO
    TITLE "4:cjc004_1841"
    INDEX 01 00:01:38
  TRACK 04 AUDIO
    TITLE "0:"
    INDEX 01 00:03:00
  TRACK 05 AUDIO
    TITLE "5:cjc004_1842"
    INDEX 01 00:03:23
  TRACK 06 AUDIO
    TITLE "0:"
    INDEX 01 00:09:10
  TRACK 07 AUDIO
    TITLE "3:cjc004_1843"
    INDEX 01 00:09:69
  TRACK 08 AUDIO
    TITLE "0:"
    INDEX 01 00:11:01
  TRACK 09 AUDIO
    TITLE "4:cjc004_1844"
    INDEX 01 00:11:27
  TRACK 10 AUDIO
    TITLE "0:"
    INDEX 01 00:12:28
  TRACK 11 AUDIO
    TITLE "5:cjc004_1845"
    INDEX 01 00:12:56
  TRACK 12 AUDIO
    TITLE "0:"
    INDEX 01 00:18:23
  TRACK 13 AUDIO
    TITLE "3:cjc004_1846"
    INDEX 01 00:19:03
  TRACK 14 AUDIO
    TITLE "0:"
    INDEX 01 00:19:73
  TRACK 15 AUDIO
    TITLE "4:cjc004_1847"
    INDEX 01 00:20:32
  TRACK 16 AUDIO
    TITLE "0:"
    INDEX 01 00:22:27
  TRACK 17 AUDIO
    TITLE "5:cjc004_1848"
    INDEX 01 00:22:52
  TRACK 18 AUDIO
    TITLE "0:"
    INDEX 01 00:27:71
  TRACK 19 AUDIO
    TITLE "3:cjc004_1849"
    INDEX 01 00:28:51
  TRACK 20 AUDIO
    TITLE "0:"
    INDEX 01 00:29:62
  TRACK 21 AUDIO
    TITLE "4:cjc004_1850"
    INDEX 01 00:30:18
  TRACK 22 AUDIO
    TITLE "0:"
    INDEX 01 00:31:55
  TRACK 23 AUDIO
    TITLE "5:cjc004_1851"
    INDEX 01 00:32:05
  TRACK 24 AUDIO
    TITLE "0:"
    INDEX 01 00:35:55
  TRACK 25 AUDIO
    TITLE "3:cjc004_1852"
    INDEX 01 00:36:36
  TRACK 26 AUDIO
    TITLE "0:"
    INDEX 01 00:37:42
  TRACK 27 AUDIO
    TITLE "4:cjc004_1853"
    INDEX 01 00:37:71
  TRACK 28 AUDIO
    TITLE "0:"
    INDEX 01 00:39:11
  TRACK 29 AUDIO
    TITLE "5:cjc004_1854"
    INDEX 01 00:39:43
  TRACK 30 AUDIO
    TITLE "0:"
    INDEX 01 00:44:42
  TRACK 31 AUDIO
    TITLE "3:cjc004_1855"
    INDEX 01 00:45:26
  TRACK 32 AUDIO
    TITLE "0:"
    INDEX 01 00:46:37
  TRACK 33 AUDIO
    TITLE "4:cjc004_1856"
    INDEX 01 00:46:66
  TRACK 34 AUDIO
    TITLE "0:"
    INDEX 01 00:48:08
  TRACK 35 AUDIO
    TITLE "5:cjc004_1857"
    INDEX 01 00:48:40
  TRACK 36 AUDIO
    TITLE "0:"
    INDEX 01 00:54:48
  TRACK 37 AUDIO
    TITLE "3:cjc004_1858"
    INDEX 01 00:55:32
  TRACK 38 AUDIO
    TITLE "0:"
    INDEX 01 00:56:37
  TRACK 39 AUDIO
    TITLE "4:cjc004_1859"
    INDEX 01 00:56:65
  TRACK 40 AUDIO
    TITLE "0:"
    INDEX 01 00:58:22
  TRACK 41 AUDIO
    TITLE "5:cjc004_1860"
    INDEX 01 00:58:48
  TRACK 42 AUDIO
    TITLE "0:"
    INDEX 01 01:02:20
  TRACK 43 AUDIO
    TITLE "3:cjc004_1861"
    INDEX 01 01:03:02
  TRACK 44 AUDIO
    TITLE "0:"
    INDEX 01 01:04:15
  TRACK 45 AUDIO
    TITLE "4:cjc004_1862"
    INDEX 01 01:04:39
  TRACK 46 AUDIO
    TITLE "0:"
    INDEX 01 01:05:38
  TRACK 47 AUDIO
    TITLE "5:cjc004_1863"
    INDEX 01 01:05:66
  TRACK 48 AUDIO
    TITLE "0:"
    INDEX 01 01:10:12
  TRACK 49 AUDIO
    TITLE "3:cjc004_1864"
    INDEX 01 01:10:65
  TRACK 50 AUDIO
    TITLE "0:"
    INDEX 01 01:12:09
  TRACK 51 AUDIO
    TITLE "4:cjc004_1865"
    INDEX 01 01:12:38
  TRACK 52 AUDIO
    TITLE "0:"
    INDEX 01 01:13:59
  TRACK 53 AUDIO
    TITLE "5:cjc004_1866"
    INDEX 01 01:14:16
  TRACK 54 AUDIO
    TITLE "0:"
    INDEX 01 01:19:01
  TRACK 55 AUDIO
    TITLE "3:cjc004_1867"
    INDEX 01 01:19:52
  TRACK 56 AUDIO
    TITLE "0:"
    INDEX 01 01:20:63
  TRACK 57 AUDIO
    TITLE "4:cjc004_1868"
    INDEX 01 01:21:14
  TRACK 58 AUDIO
    TITLE "0:"
    INDEX 01 01:22:37
  TRACK 59 AUDIO
    TITLE "5:cjc004_1869"
    INDEX 01 01:22:58
  TRACK 60 AUDIO
    TITLE "0:"
    INDEX 01 01:27:12
